<svg width="174" height="58" viewBox="0 0 174 58" fill="none" xmlns="http://www.w3.org/2000/svg">
<path d="M30.6236 51.7941C42.7639 51.7941 52.6056 41.9524 52.6056 29.8121C52.6056 17.6718 42.7639 7.83008 30.6236 7.83008C18.4833 7.83008 8.6416 17.6718 8.6416 29.8121C8.6416 41.9524 18.4833 51.7941 30.6236 51.7941Z" fill="url(#paint0_linear_1_1654)"/>
<path d="M14.1516 18.8501C17.1947 18.8501 19.6616 16.3832 19.6616 13.3401C19.6616 10.297 17.1947 7.83008 14.1516 7.83008C11.1085 7.83008 8.6416 10.297 8.6416 13.3401C8.6416 16.3832 11.1085 18.8501 14.1516 18.8501Z" fill="url(#paint1_linear_1_1654)"/>
<path d="M20.1832 18.0379L19.9512 43.0939C19.9512 43.2679 20.1252 43.4419 20.2992 43.4419H40.1932C40.3672 43.4419 40.5412 43.2679 40.5412 43.0939V39.2659C40.5412 39.0339 40.3672 38.8599 40.1352 38.8599H24.9392L25.1132 18.0379C25.1132 17.8639 24.9392 17.6899 24.7652 17.6899H20.4732C20.2992 17.6899 20.1832 17.8639 20.1832 18.0379Z" fill="white"/>
<path d="M27.3174 22.2719L29.2894 17.6899H40.1934C40.3674 17.6899 40.5414 17.8639 40.5414 18.0379V21.9819C40.5414 22.1559 40.3674 22.3299 40.1934 22.3299L27.3174 22.2719Z" fill="white"/>
<path d="M27.3174 32.7702L29.0574 28.3042H37.6414C37.8154 28.3042 37.9894 28.4782 37.9894 28.6522V32.4222C37.9894 32.5962 37.8154 32.7702 37.6414 32.7702H27.3174Z" fill="white"/>
<path d="M61.0732 17.458H69.4252V18.502H62.1172V23.78H69.4252V24.766H62.1172V30.16H69.4252V31.204H61.0732V17.458Z" fill="#04003B"/>
<path d="M71.9199 21.8077H72.9639V23.4317C73.5439 22.3297 74.7039 21.5757 76.2699 21.5757C78.1259 21.5757 79.3439 22.4457 79.8079 23.7797C80.3879 22.4457 81.7219 21.5757 83.4619 21.5757C86.0719 21.5757 87.6379 23.2577 87.6379 25.6937V31.1457H86.5939V25.6357C86.5939 23.8377 85.3759 22.5617 83.4619 22.5617C81.7219 22.5617 80.3299 23.7797 80.3299 25.6937V31.1457H79.2859V25.4617C79.2859 23.7217 78.1259 22.5617 76.2699 22.5617C74.4139 22.5617 73.0799 23.8377 73.0799 25.8677V31.1457H71.9199V21.8077Z" fill="#04003B"/>
<path d="M91.2335 29.2898V35.4958H90.1895V21.8078H91.1755V23.7798C91.9295 22.3878 93.4955 21.6338 95.0035 21.6338C97.7295 21.6338 99.8175 23.8378 99.8175 26.5058C99.8175 29.1738 97.7295 31.3778 95.0035 31.3778C93.4955 31.3778 91.9875 30.6238 91.2335 29.2898ZM98.7735 26.5058C98.7735 24.3598 97.0915 22.6198 95.0035 22.6198C92.8575 22.6198 91.1755 24.3598 91.1755 26.5058C91.1755 28.6518 92.8575 30.3918 95.0035 30.3918C97.0915 30.3918 98.7735 28.6518 98.7735 26.5058Z" fill="#04003B"/>
<path d="M102.138 21.8081H103.182V23.6061C103.704 22.5041 104.806 21.8081 106.256 21.8081H107.126V22.7941H106.256C104.284 22.7941 103.24 24.0121 103.24 26.2741V31.1461H102.196V21.8081H102.138Z" fill="#04003B"/>
<path d="M108.17 26.5639C108.17 23.7799 110.258 21.6339 113.042 21.6339C115.768 21.6339 117.856 23.6059 117.856 26.3899V26.8539H109.214C109.388 28.9419 110.896 30.3919 113.1 30.3919C114.84 30.3919 116 29.4639 116.638 28.0719L117.566 28.5359C116.696 30.3339 115.304 31.3779 113.1 31.3779C110.026 31.3779 108.17 29.2899 108.17 26.5639ZM109.214 25.8679H116.696C116.464 23.8959 115.072 22.5619 112.984 22.5619C111.07 22.5619 109.504 23.9539 109.214 25.8679ZM113.622 18.2119H114.782L113.448 21.2279H112.636L113.622 18.2119Z" fill="#04003B"/>
<path d="M119.306 29.5802L120.176 28.8842C120.814 29.7542 121.858 30.3922 123.134 30.3922C124.758 30.3922 125.57 29.5222 125.57 28.5362C125.57 27.3762 124.236 27.1442 122.902 26.7962C121.394 26.4482 119.828 25.9262 119.828 24.1862C119.828 22.7942 121.104 21.5762 123.134 21.5762C124.468 21.5762 125.744 22.0982 126.498 22.9682L125.686 23.6062C125.048 22.8522 124.236 22.5042 123.134 22.5042C121.684 22.5042 120.93 23.2582 120.93 24.1862C120.93 25.2882 122.206 25.5782 123.54 25.9262C125.048 26.2742 126.672 26.7962 126.672 28.5942C126.672 29.8702 125.628 31.3782 123.192 31.3782C121.452 31.3782 120.118 30.6242 119.306 29.5802Z" fill="#04003B"/>
<path d="M128.005 21.8078H129.629V20.0098H130.731V21.8078H133.109V22.7358H130.731V27.7238C130.731 29.8118 131.137 30.1598 133.109 30.1598V31.1458H132.935C130.325 31.1458 129.629 30.4498 129.629 27.7238V22.7358H128.005V21.8078Z" fill="#04003B"/>
<path d="M135.255 21.8081H136.299V31.2041H135.255V21.8081Z" fill="#04003B"/>
<path d="M139.025 21.8082H140.069V23.4322C140.649 22.3302 141.809 21.5762 143.375 21.5762C145.231 21.5762 146.449 22.4462 146.913 23.7802C147.493 22.4462 148.827 21.5762 150.567 21.5762C153.177 21.5762 154.743 23.2582 154.743 25.6942V31.1462H153.699V25.6362C153.699 23.8382 152.481 22.5622 150.567 22.5622C148.827 22.5622 147.435 23.7802 147.435 25.6942V31.1462H146.391V25.4622C146.391 23.7222 145.231 22.5622 143.375 22.5622C141.519 22.5622 140.185 23.8382 140.185 25.8682V31.1462H139.141V21.8082H139.025Z" fill="#04003B"/>
<path d="M156.947 26.5058C156.947 23.7798 159.093 21.6338 161.819 21.6338C164.545 21.6338 166.691 23.7798 166.691 26.5058C166.691 29.2318 164.545 31.3778 161.819 31.3778C159.093 31.3778 156.947 29.2318 156.947 26.5058ZM165.589 26.5058C165.589 24.3598 163.907 22.6198 161.819 22.6198C159.673 22.6198 158.049 24.3598 158.049 26.5058C158.049 28.6518 159.731 30.3918 161.819 30.3918C163.907 30.3918 165.589 28.6518 165.589 26.5058Z" fill="#04003B"/>
<path d="M119.306 36.54H119.828V39.44C120.118 38.918 120.756 38.512 121.51 38.512C122.728 38.512 123.54 39.324 123.54 40.6V43.152H122.96V40.6C122.96 39.614 122.38 38.976 121.394 38.976C120.466 38.976 119.77 39.672 119.77 40.6V43.152H119.248L119.306 36.54Z" fill="#04003B"/>
<path d="M124.584 40.8321C124.584 39.4981 125.628 38.4541 126.962 38.4541C128.296 38.4541 129.34 39.4981 129.34 40.8321C129.34 42.1661 128.296 43.2101 126.962 43.2101C125.628 43.2101 124.584 42.1661 124.584 40.8321ZM128.818 40.8321C128.818 39.7881 128.006 38.9181 126.962 38.9181C125.918 38.9181 125.106 39.7881 125.106 40.8321C125.106 41.8761 125.918 42.7461 126.962 42.7461C128.006 42.6881 128.818 41.8761 128.818 40.8321Z" fill="#04003B"/>
<path d="M129.166 44.6601C130.152 44.6601 130.326 44.4861 130.326 43.5001V38.5121H130.848V43.5001C130.848 44.7761 130.442 45.1821 129.224 45.1821H129.166V44.6601ZM130.268 37.6421C130.326 37.4681 130.5 37.3521 130.674 37.4101C130.848 37.4681 130.964 37.6421 130.906 37.8161C130.848 37.9901 130.674 38.1061 130.5 38.0481C130.268 38.0481 130.21 37.8741 130.268 37.6421Z" fill="#04003B"/>
<path d="M131.544 40.8321C131.544 39.4981 132.53 38.4541 133.922 38.4541C135.256 38.4541 136.242 39.3821 136.242 40.7741V41.0061H132.066C132.124 41.9921 132.878 42.7461 133.98 42.7461C134.85 42.7461 135.372 42.2821 135.72 41.5861L136.184 41.8181C135.778 42.6881 135.082 43.2101 134.038 43.2101C132.472 43.1521 131.544 42.1661 131.544 40.8321ZM132.066 40.5421H135.72C135.604 39.6141 134.966 38.9181 133.922 38.9181C132.994 38.9181 132.24 39.6141 132.066 40.5421Z" fill="#04003B"/>
<path d="M138.156 40.8321C138.156 39.4981 139.2 38.4541 140.534 38.4541C141.52 38.4541 142.332 39.0341 142.68 39.8461L142.216 40.0201C141.926 39.3241 141.288 38.9181 140.534 38.9181C139.49 38.9181 138.678 39.7881 138.678 40.8321C138.678 41.8761 139.49 42.7461 140.534 42.7461C141.346 42.7461 141.926 42.2821 142.216 41.5861L142.68 41.7601C142.332 42.5721 141.578 43.2101 140.534 43.2101C139.2 43.1521 138.156 42.1081 138.156 40.8321Z" fill="#04003B"/>
<path d="M143.201 40.8321C143.201 39.4981 144.245 38.4541 145.579 38.4541C146.913 38.4541 147.957 39.4981 147.957 40.8321C147.957 42.1661 146.913 43.2101 145.579 43.2101C144.245 43.2101 143.201 42.1661 143.201 40.8321ZM147.377 40.8321C147.377 39.7881 146.565 38.9181 145.521 38.9181C144.477 38.9181 143.665 39.7881 143.665 40.8321C143.665 41.8761 144.477 42.7461 145.521 42.7461C146.565 42.6881 147.377 41.8761 147.377 40.8321Z" fill="#04003B"/>
<path d="M148.653 38.6283H149.175V39.4403C149.465 38.9183 150.045 38.5703 150.799 38.5703C151.669 38.5703 152.307 38.9763 152.539 39.6143C152.829 38.9763 153.467 38.5703 154.279 38.5703C155.555 38.5703 156.309 39.3823 156.309 40.5423V43.1523H155.787V40.4843C155.787 39.6143 155.207 38.9763 154.279 38.9763C153.409 38.9763 152.771 39.5563 152.771 40.4843V43.1523H152.249V40.4263C152.249 39.5563 151.669 39.0343 150.799 39.0343C149.929 39.0343 149.233 39.6723 149.233 40.6583V43.2103H148.711L148.653 38.6283Z" fill="#04003B"/>
<path d="M157.412 43.21C157.636 43.21 157.818 43.0282 157.818 42.804C157.818 42.5797 157.636 42.3979 157.412 42.3979C157.188 42.3979 157.006 42.5797 157.006 42.804C157.006 43.0282 157.188 43.21 157.412 43.21Z" fill="#04003B"/>
<path d="M159.036 42.1659V43.2099H158.514V36.4819H159.036V39.4979C159.384 38.8599 160.196 38.4539 160.834 38.4539C162.168 38.4539 163.154 39.4979 163.154 40.8319C163.154 42.1079 162.11 43.2099 160.834 43.2099C160.138 43.1519 159.384 42.8039 159.036 42.1659ZM162.69 40.8319C162.69 39.7879 161.878 38.9179 160.834 38.9179C159.79 38.9179 158.978 39.7879 158.978 40.8319C158.978 41.8759 159.79 42.7459 160.834 42.7459C161.878 42.6879 162.69 41.8759 162.69 40.8319Z" fill="#04003B"/>
<path d="M163.966 38.6279H164.488V39.4979C164.778 38.9759 165.242 38.6279 165.996 38.6279H166.402V39.0919H165.996C165.01 39.0919 164.546 39.6719 164.546 40.7739V43.1519H164.024V38.6279H163.966Z" fill="#04003B"/>
<path d="M136.996 43.21C137.22 43.21 137.402 43.0282 137.402 42.804C137.402 42.5797 137.22 42.3979 136.996 42.3979C136.772 42.3979 136.59 42.5797 136.59 42.804C136.59 43.0282 136.772 43.21 136.996 43.21Z" fill="#04003B"/>
<defs>
<linearGradient id="paint0_linear_1_1654" x1="14.0121" y1="15.3735" x2="47.1577" y2="44.1866" gradientUnits="userSpaceOnUse">
<stop offset="0.0334118" stop-color="#00E2B9"/>
<stop offset="0.2651" stop-color="#00DAB5"/>
<stop offset="0.6182" stop-color="#00C5A8"/>
<stop offset="1" stop-color="#00A797"/>
</linearGradient>
<linearGradient id="paint1_linear_1_1654" x1="9.98059" y1="9.71595" x2="18.2621" y2="16.915" gradientUnits="userSpaceOnUse">
<stop offset="0.0334118" stop-color="#FFE02C"/>
<stop offset="1" stop-color="#FFA52C"/>
</linearGradient>
</defs>
</svg>